<?xml version="1.0" standalone="no"?>
<!DOCTYPE svg PUBLIC "-//W3C//DTD SVG 20010904//EN"
 "http://www.w3.org/TR/2001/REC-SVG-20010904/DTD/svg10.dtd">
<svg version="1.0" xmlns="http://www.w3.org/2000/svg"
 width="920.000000pt" height="920.000000pt" viewBox="0 0 920.000000 920.000000"
 preserveAspectRatio="xMidYMid meet">
<metadata>
Created by potrace 1.16, written by Peter Selinger 2001-2019
</metadata>
<g transform="translate(0.000000,920.000000) scale(0.100000,-0.100000)"
fill="#000000" stroke="none">
<path d="M1908 7900 c-244 -41 -441 -188 -544 -405 -74 -155 -68 -44 -72
-1488 l-3 -1297 1598 2 1598 3 3 1598 2 1597 -1267 -1 c-698 -1 -1289 -5
-1315 -9z m2292 -1590 l0 -1310 -1310 0 -1310 0 0 1104 c0 708 4 1123 10 1157
16 82 63 173 120 229 54 55 157 110 225 121 22 4 541 7 1153 8 l1112 1 0
-1310z"/>
<path d="M4712 6313 l3 -1598 1598 -3 1598 -2 -3 1297 -3 1298 -23 73 c-64
207 -193 361 -377 452 -162 80 -45 74 -1498 78 l-1297 3 2 -1598z m2650 1265
c133 -63 221 -176 248 -317 6 -34 10 -449 10 -1157 l0 -1104 -1310 0 -1310 0
0 1310 0 1311 1143 -3 1142 -3 77 -37z"/>
<path d="M1292 3193 c4 -1453 -2 -1336 78 -1498 91 -184 245 -313 452 -377
l73 -23 1298 -3 1297 -3 -2 1598 -3 1598 -1598 3 -1598 2 3 -1297z m2908 -303
l0 -1311 -1142 3 -1143 3 -79 39 c-103 50 -167 113 -214 214 l-37 77 -3 1143
-3 1142 1311 0 1310 0 0 -1310z"/>
<path d="M4717 4483 c-4 -3 -7 -723 -7 -1600 l0 -1594 1298 3 c1452 4 1335 -2
1497 78 144 71 255 182 325 325 81 165 74 44 78 1498 l3 1297 -1594 0 c-877 0
-1597 -3 -1600 -7z m2903 -1387 c0 -708 -4 -1123 -10 -1157 -27 -141 -115
-254 -248 -317 l-77 -37 -1142 -3 -1143 -3 0 1311 0 1310 1310 0 1310 0 0
-1104z"/>
</g>
</svg>
