<?xml version="1.0" standalone="no"?>
<!DOCTYPE svg PUBLIC "-//W3C//DTD SVG 20010904//EN"
 "http://www.w3.org/TR/2001/REC-SVG-20010904/DTD/svg10.dtd">
<svg version="1.0" xmlns="http://www.w3.org/2000/svg"
 width="200.000000pt" height="200.000000pt" viewBox="0 0 200.000000 200.000000"
 preserveAspectRatio="xMidYMid meet">
<metadata>
Created by potrace 1.16, written by Peter Selinger 2001-2019
</metadata>
<g transform="translate(0.000000,200.000000) scale(0.100000,-0.100000)"
fill="#000000" stroke="none">
<path d="M388 1931 c-211 -68 -338 -245 -338 -471 0 -149 46 -256 154 -358
151 -143 385 -173 570 -74 65 34 164 133 198 198 144 269 10 607 -279 703 -81
27 -223 28 -305 2z m315 -126 c118 -59 206 -187 215 -316 16 -228 -179 -423
-407 -407 -129 9 -258 97 -316 215 -37 75 -46 203 -21 281 36 107 116 193 223
238 51 22 70 24 153 21 80 -3 104 -8 153 -32z"/>
<path d="M340 1640 c-14 -14 -20 -33 -20 -63 0 -55 26 -82 80 -82 54 0 80 27
80 82 0 57 -25 83 -80 83 -27 0 -47 -7 -60 -20z"/>
<path d="M615 1635 c-35 -34 -33 -78 4 -116 31 -31 59 -36 94 -17 50 26 62 86
26 132 -28 36 -89 37 -124 1z"/>
<path d="M376 1364 c-35 -34 -3 -90 69 -120 101 -42 265 11 265 86 0 55 -46
66 -107 24 -45 -30 -94 -29 -142 5 -35 25 -64 27 -85 5z"/>
<path d="M1232 1686 c-56 -57 -82 -91 -82 -107 0 -17 25 -49 83 -107 67 -66
88 -82 113 -82 58 0 72 47 28 99 l-26 31 67 0 c71 0 123 -20 162 -62 41 -43
53 -90 53 -202 0 -114 9 -136 55 -136 47 0 55 22 55 145 0 90 -4 126 -20 168
-28 74 -79 130 -152 166 -54 27 -71 31 -146 31 l-84 0 31 35 c35 41 39 65 13
88 -37 34 -64 22 -150 -67z"/>
<path d="M1331 1014 c-82 -22 -150 -62 -216 -129 -98 -97 -145 -210 -145 -345
0 -171 85 -324 232 -420 83 -54 164 -73 284 -68 120 6 189 30 277 96 121 93
187 230 187 392 0 149 -46 256 -154 358 -120 114 -303 160 -465 116z m282
-127 c74 -34 156 -112 193 -184 26 -53 29 -67 29 -163 0 -96 -3 -110 -29 -165
-38 -76 -105 -143 -181 -181 -55 -26 -69 -29 -165 -29 -96 0 -110 3 -163 29
-72 37 -150 118 -185 193 -24 51 -27 70 -26 153 0 81 4 104 27 153 46 101 153
190 262 218 60 16 177 4 238 -24z"/>
<path d="M1265 715 c-54 -53 -16 -145 60 -145 43 0 85 37 85 74 0 83 -90 127
-145 71z"/>
<path d="M1546 719 c-21 -16 -26 -29 -26 -63 0 -76 74 -112 134 -65 21 16 26
29 26 64 0 35 -5 48 -26 64 -15 12 -39 21 -54 21 -15 0 -39 -9 -54 -21z"/>
<path d="M1386 465 c-78 -28 -105 -59 -92 -111 8 -31 51 -33 98 -4 44 27 107
26 142 -1 33 -26 75 -28 93 -3 20 27 16 43 -20 79 -53 53 -141 69 -221 40z"/>
<path d="M275 863 c-14 -14 -16 -35 -13 -147 3 -123 5 -134 33 -184 59 -108
138 -154 273 -160 l94 -4 -31 -32 c-34 -35 -39 -66 -15 -90 33 -34 64 -20 151
67 60 60 83 90 83 108 0 19 -24 49 -89 112 -49 48 -96 87 -105 87 -22 0 -56
-36 -56 -59 0 -11 12 -33 26 -50 l26 -31 -61 0 c-100 0 -166 38 -202 115 -14
31 -19 64 -19 146 0 90 -3 108 -18 122 -24 22 -56 22 -77 0z"/>
</g>
</svg>
